<?xml version="1.0" encoding="UTF-8"?>
<svg width="24px" height="24px" viewBox="0 0 24 24" version="1.1" xmlns="http://www.w3.org/2000/svg" xmlns:xlink="http://www.w3.org/1999/xlink">
    <title>B546EB18-84AE-48A5-A1EF-28FA9C73C34B</title>
    <g id="Style-guide" stroke="none" stroke-width="1" fill="none" fill-rule="evenodd">
        <g id="Icons-and-logos" transform="translate(-376.000000, -404.000000)">
            <g id="Group-6" transform="translate(70.000000, 367.000000)">
                <g id="icons/24/chevron/right" transform="translate(306.000000, 37.000000)">
                    <g id="mail_outline-24px">
                        <polygon id="Path" points="0 0 24 0 24 24 0 24"></polygon>
                    </g>
                    <path d="M4.14504622,9.33214128 L10.8029629,15.9900579 C11.209344,16.396439 11.8663852,16.396439 12.2727663,15.9900579 L18.9306829,9.33214128 C19.4162307,8.84659354 19.4162307,8.06288563 18.9306829,7.57733789 L18.8297746,7.48670231 C18.341966,7.09394814 17.6290574,7.12416 17.1758796,7.57733789 L11.5408229,13.2198438 L5.89984961,7.57733789 C5.41104437,7.09848967 4.62875529,7.10154548 4.14504622,7.58525455 C3.66741515,8.06288563 3.66741515,8.85451021 4.14504622,9.33214128 Z" id="Path" fill="#fff" fill-rule="nonzero" transform="translate(11.540833, 11.754010) rotate(-90.000000) translate(-11.540833, -11.754010) "></path>
                </g>
            </g>
        </g>
    </g>
</svg>