<?xml version="1.0" encoding="UTF-8"?>
<svg width="70px" height="70px" viewBox="0 0 70 70" version="1.1" xmlns="http://www.w3.org/2000/svg" xmlns:xlink="http://www.w3.org/1999/xlink">
    <title>7E2B17A7-31A9-4A49-A240-BDD0050042B7</title>
    <g id="1.-Vehicle-page" stroke="none" stroke-width="1" fill="none" fill-rule="evenodd">
        <g id="1.-Vehicle-page---op2" transform="translate(-841.000000, -865.000000)">
            <g id="Group-23" transform="translate(110.000000, 710.000000)">
                <g id="Group-21" transform="translate(625.000000, 115.000000)">
                    <g id="Group-17" transform="translate(59.000000, 40.000000)">
                        <g id="icons/60/car" transform="translate(47.000000, 0.000000)">
                            <path d="M20.4665395,41.3373081 L49.7136671,42.1676856 L51.5917421,48.6149456 L60.5840605,48.4412391 L60.714,46.1123081 L70,58.4056261 L0,58.4056261 L9.743,45.5073081 L9.79955028,48.3887285 L18.7688483,49.0534627 L20.4665395,41.3373081 Z" id="Combined-Shape" fill="#67E6C3"></path>
                            <path d="M50.3315808,9 C52.3235376,9.01144803 54.1094299,10.247835 54.8077596,12.1138635 L54.8077596,12.1138635 L58.9061536,23.1612103 L60.0738524,24.3975973 C61.3789276,25.6454324 62.1116013,27.3626365 62.1230494,29.1599769 L62.1230494,29.1599769 L62.1230494,45.6794809 C62.1116013,48.3125273 59.9708202,50.4418605 57.3377738,50.4418605 L57.3377738,50.4418605 L54.3154944,50.4418605 C51.6824481,50.4418605 49.5416669,48.3125273 49.5302188,45.6794809 L49.5302188,45.6794809 L49.5302188,43.3440833 L21.13911,43.3440833 L21.13911,45.6794809 C21.127662,48.3125273 18.9868808,50.4418605 16.3538344,50.4418605 L16.3538344,50.4418605 L13.3315551,50.4418605 C10.6985087,50.4418605 8.55772752,48.3125273 8.54627949,45.6794809 L8.54627949,45.6794809 L8.54627949,29.5835539 C8.54627949,27.6602852 9.39343355,25.8286008 10.8587811,24.5807658 L10.8587811,24.5807658 L12.5416412,23.023834 L16.582795,12.1138635 C17.2811247,10.247835 19.067017,9 21.0589738,9 L21.0589738,9 Z M10.835885,42.6800976 L10.835885,45.6794809 C10.8473331,47.0532443 11.9577918,48.1522549 13.3315551,48.1522549 L13.3315551,48.1522549 L16.3538344,48.1522549 C17.7275977,48.1522549 18.8380564,47.0532443 18.8495045,45.6794809 L18.8495045,45.6794809 L18.8495045,43.3440833 L13.3315551,43.3440833 C12.4271609,43.3440833 11.5227667,43.1265707 10.835885,42.6800976 L10.835885,42.6800976 Z M59.8334438,42.6800976 C59.1465622,43.1265707 58.242168,43.3440833 57.3377738,43.3440833 L57.3377738,43.3440833 L51.8198244,43.3440833 L51.8198244,45.6794809 C51.8312724,47.0417962 52.9417311,48.1522549 54.3154944,48.1522549 L54.3154944,48.1522549 L57.3377738,48.1522549 C58.7115371,48.1522549 59.8219958,47.0532443 59.8334438,45.6794809 L59.8334438,45.6794809 Z M57.3148777,24.7982783 L13.9611966,24.7982783 L12.4042648,26.2636259 C12.3928168,26.2750739 12.3699208,26.2979699 12.3584727,26.309418 C11.3968384,27.1222279 10.835885,28.3242708 10.835885,29.5835539 L10.835885,29.5835539 L10.835885,38.6045998 C10.8473331,39.9783631 11.9692398,41.0659257 13.3315551,41.0545673 L13.3315551,41.0545673 L57.3377738,41.0545673 C58.7000891,41.0659257 59.8219958,39.9669151 59.8334438,38.6045998 L59.8334438,38.6045998 L59.8219958,38.6045998 L59.8219958,29.1599769 C59.8219958,27.98083 59.3297306,26.8474753 58.4711285,26.0346653 L58.4138884,25.9774252 L57.3148777,24.7982783 Z M23.6576761,29.3774894 C24.2873177,29.3774894 24.8024789,29.8926506 24.8024789,30.5222922 L24.8024789,30.5222922 L24.8024789,36.4752666 C24.8024789,37.1049081 24.2873177,37.6200694 23.6576761,37.6200694 L23.6576761,37.6200694 L15.0716553,37.6200694 C14.4420138,37.6200694 13.9268525,37.1049081 13.9268525,36.4752666 L13.9268525,36.4752666 L13.9268525,30.5222922 C13.9268525,29.8926506 14.4420138,29.3774894 15.0716553,29.3774894 L15.0716553,29.3774894 Z M55.5976736,29.3774894 C56.2273151,29.3774894 56.7424763,29.8926506 56.7424763,30.5222922 L56.7424763,30.5222922 L56.7424763,36.4752666 C56.7424763,37.1049081 56.2273151,37.6200694 55.5976736,37.6200694 L55.5976736,37.6200694 L47.0116527,37.6200694 C46.3820112,37.6200694 45.86685,37.1049081 45.86685,36.4752666 L45.86685,36.4752666 L45.86685,30.5222922 C45.86685,29.8926506 46.3820112,29.3774894 47.0116527,29.3774894 L47.0116527,29.3774894 Z M22.5128734,31.667095 L16.2164581,31.667095 L16.2164581,35.3304638 L22.5128734,35.3304638 L22.5128734,31.667095 Z M54.4528708,31.667095 L48.1564555,31.667095 L48.1564555,35.3304638 L54.4528708,35.3304638 L54.4528708,31.667095 Z M50.3430288,11.2896056 L21.0589738,11.2896056 C20.0286513,11.2896056 19.1013611,11.9192471 18.7350242,12.8923294 L18.7350242,12.8923294 L15.1632395,22.5086727 L56.2387631,22.5086727 L52.6669785,12.8923294 C52.3006416,11.9306951 51.3733513,11.2896056 50.3430288,11.2896056 L50.3430288,11.2896056 Z" id="Combined-Shape" stroke="#232873" stroke-width="0.2" fill="#232873" fill-rule="nonzero"></path>
                        </g>
                    </g>
                </g>
            </g>
        </g>
    </g>
</svg>