<?xml version="1.0" encoding="UTF-8"?>
<svg width="24px" height="24px" viewBox="0 0 24 24" version="1.1" xmlns="http://www.w3.org/2000/svg" xmlns:xlink="http://www.w3.org/1999/xlink">
    <title>129E5E11-C22D-4E4B-B6D4-B1B2A1A6A9F5</title>
    <g id="Style-guide" stroke="none" stroke-width="1" fill="none" fill-rule="evenodd">
        <g id="Icons-and-logos" transform="translate(-648.000000, -404.000000)" fill="#232873" fill-rule="nonzero">
            <g id="Group-6" transform="translate(70.000000, 367.000000)">
                <g id="icons/24/facebook" transform="translate(578.000000, 37.000000)">
                    <path d="M20.0064239,2.99999997 C20.5549164,2.99999997 20.9997254,3.44439697 21,3.99275207 L21,3.99275207 L21,20.0064239 L21,20.0064239 L20.9933139,20.1226821 C20.9359072,20.6167026 20.5158659,21 20.0064239,21 L20.0064239,21 L15.427,20.999 L15.4277344,14.0390625 L17.7744141,14.0390625 L18.1259766,11.3144531 L15.4277344,11.3144531 L15.4277344,9.5791626 C15.4277344,8.79212951 15.646225,8.25585937 16.7747955,8.25585937 L18.2050781,8.25585937 L18.2050781,5.82554627 C17.9562378,5.79244997 17.1024628,5.71842957 16.109024,5.71842957 C14.0348053,5.71842957 12.6152344,6.98405457 12.6152344,9.30931092 L12.6152344,11.3144531 L10.2773438,11.3144531 L10.2773438,14.0390625 L12.6152344,14.0390625 L12.615,20.999 L3.99357606,21 C3.48426164,21 3.06434779,20.616821 3.00673871,20.1230373 L2.99999997,20.0072479 L2.99999997,3.99357606 C2.99999997,3.44508361 3.44439697,3.00027466 3.99275207,2.99999997 L3.99275207,2.99999997 Z" id="Combined-Shape"></path>
                </g>
            </g>
        </g>
    </g>
</svg>