<?xml version="1.0" encoding="UTF-8"?>
<svg width="50px" height="50px" viewBox="0 0 50 50" version="1.1" xmlns="http://www.w3.org/2000/svg" xmlns:xlink="http://www.w3.org/1999/xlink">
    <title>CB045D22-69C0-48BE-B67E-8DFA226C20FE</title>
    <g id="Style-guide" stroke="none" stroke-width="1" fill="none" fill-rule="evenodd">
        <g id="Icons-and-logos" transform="translate(-921.000000, -791.000000)" fill-rule="nonzero">
            <g id="Group" transform="translate(681.000000, 754.000000)">
                <g id="icons/coins/L/5" transform="translate(240.000000, 37.000000)">
                    <g id="Group" transform="translate(1.000000, 1.000000)">
                        <circle id="Oval" stroke="#FFFFFF" stroke-width="2" fill="#FF99C9" stroke-linecap="round" stroke-linejoin="round" cx="24" cy="24" r="24"></circle>
                        <path d="M20.8801087,12.7058824 C25.3946092,12.7058824 29.0543349,16.4703057 29.0543349,21.1139572 C29.0543349,22.9202672 28.5005847,24.593542 27.5581753,25.9639675 L30.8018824,29.3018824 L33.3912633,26.6386863 C33.759598,26.2598143 34.3567866,26.2598143 34.7251212,26.6386863 C35.059971,26.9831154 35.0904118,27.5220907 34.8164439,27.9018919 L34.7251212,28.0107033 L32.1348824,30.6738824 L35.0178666,33.6379467 C35.3862013,34.0168187 35.3862013,34.6310916 35.0178666,35.0099636 C34.6830169,35.3543927 34.1590318,35.3857045 33.7897938,35.1038988 L33.6840087,35.0099636 L30.8018824,32.0448824 L28.0884157,34.8372719 C27.720081,35.216144 27.1228925,35.216144 26.7545578,34.8372719 C26.4197081,34.4928428 26.3892672,33.9538675 26.6632352,33.5740664 L26.7545578,33.465255 L29.4678824,30.6728824 L26.2966225,27.411264 C24.8544521,28.7246928 22.9578049,29.5220321 20.8801087,29.5220321 C16.3656081,29.5220321 12.7058824,25.7576087 12.7058824,21.1139572 C12.7058824,16.4703057 16.3656081,12.7058824 20.8801087,12.7058824 Z M20.8801087,14.6462073 C17.4074159,14.6462073 14.5922423,17.5419176 14.5922423,21.1139572 C14.5922423,24.6859968 17.4074159,27.5817071 20.8801087,27.5817071 C24.3528014,27.5817071 27.167975,24.6859968 27.167975,21.1139572 C27.167975,17.5419176 24.3528014,14.6462073 20.8801087,14.6462073 Z" id="Combined-Shape" fill="#FFFFFF"></path>
                    </g>
                </g>
            </g>
        </g>
    </g>
</svg>