<?xml version="1.0" encoding="UTF-8"?>
<svg width="70px" height="70px" viewBox="0 0 70 70" version="1.1" xmlns="http://www.w3.org/2000/svg" xmlns:xlink="http://www.w3.org/1999/xlink">
    <title>3A6D3403-9976-4FDC-9F3D-DD508E8BDE63</title>
    <g id="4.-Gender" stroke="none" stroke-width="1" fill="none" fill-rule="evenodd">
        <g id="4.-Gender-v3" transform="translate(-1041.000000, -340.000000)" fill="#14008E" fill-rule="nonzero">
            <g id="Group" transform="translate(990.000000, 320.000000)">
                <g id="icons/60/hand-copy" transform="translate(51.000000, 20.000000)">
                    <path d="M35.1259225,5 C51.1558064,5 58.2618683,14.7368795 58.4023865,30.2059839 L58.4045146,30.6764951 C58.4045146,40.6972436 59.4332009,46.7754449 61.9456107,55.0415017 C62.107188,55.5731059 61.9003642,56.1475566 61.4367219,56.4549345 C58.1409725,58.6398957 53.4275858,60.1904007 47.2874877,61.1370448 L47.2865783,63.7416732 C47.2865783,64.4366279 46.7221065,65 46.0257953,65 C45.3730035,65 44.8360862,64.5048487 44.7715215,63.8703298 L44.7650122,63.7416732 L44.7660639,54.5846145 C42.0648009,55.9510881 38.8321921,56.6651061 35.1259225,56.6651061 C32.097841,56.6651061 29.4288297,56.0536376 27.1139845,54.9101585 L27.1140499,63.7416732 C27.1140499,64.4366279 26.5495781,65 25.8532669,65 C25.2004751,65 24.6635578,64.5048487 24.5989931,63.8703298 L24.5924838,63.7416732 L24.5928935,61.2826639 C19.2807391,61.0644952 13.9615265,59.4677074 8.6462014,56.5054269 C8.15709419,56.2328428 7.90685532,55.6708531 8.03191767,55.1258604 L8.35987528,53.7232821 L10.0288294,46.8574103 C11.4370149,40.84684 12.0615966,36.3456354 12.0615966,30.6764951 C12.0615966,24.4885629 13.4862542,18.5462833 16.5438206,13.9781054 C20.3972484,8.22086546 26.5682928,5 35.1259225,5 Z M13.8353008,40.6344133 L13.7968456,40.8890837 C13.5082047,42.7048843 13.1367051,44.5736977 12.6768032,46.5961452 L12.2797902,48.2862937 L10.8904281,53.9811801 L10.7050597,54.7565727 L10.986498,54.9062033 C15.5559263,57.2794029 20.0885059,58.5618411 24.5927297,58.7635115 L24.5918795,53.3531243 C21.2841894,50.8551595 18.900618,47.0420147 17.4203284,42.2512944 L17.2439847,41.6599073 L17.0224895,41.6610875 C15.7326493,41.6406963 14.6547143,41.2808981 13.8353008,40.6344133 Z M35.1259225,7.5166536 C21.1408933,7.5166536 14.712263,16.912448 14.5850889,30.2704985 L14.5831627,30.6764951 L14.5805557,31.1346213 C15.9599543,30.2884749 17.7625394,30.4513556 19.8326036,31.5169362 L20.1165528,31.6677859 L23.0075974,29.7619682 C23.5497729,29.4043321 24.2672581,29.5193159 24.672662,30.0076116 L24.7545799,30.1179241 C25.1129141,30.6590433 24.9977058,31.3751308 24.508457,31.7797449 L24.3979292,31.8615032 L20.8516903,34.2007148 C20.439171,34.4728256 19.9053567,34.4791419 19.4864897,34.2168683 C17.2371654,32.8084536 16.0435548,32.8084536 15.3593174,33.8437911 C14.6602495,34.9015691 14.383612,36.5085078 14.7384421,37.6363212 C15.1067204,38.806879 16.0779466,39.3617313 18.0019111,39.0783568 C18.6406887,38.9842733 19.2474424,39.3870589 19.4074402,40.011399 C21.6697795,48.8394512 26.8099706,54.1484525 35.1259225,54.1484525 C44.4956154,54.1484525 50.1687391,49.2011616 51.4690764,40.1447047 C51.9270585,36.9549976 50.7129065,35.1590578 46.7465945,33.5893968 L46.213553,33.3858457 L45.6487635,33.1842854 C45.5519566,33.1508259 45.4538048,33.1174254 45.3542968,33.0840718 L44.7408866,32.8844181 L44.0943968,32.6853159 L43.414295,32.4861893 L42.7000484,32.2864627 C42.5781323,32.2530929 42.4547713,32.2196741 42.3299543,32.1861944 L41.563492,31.9844882 L40.0220679,31.5981094 L38.0235175,31.1061192 L36.9244873,30.8277147 L35.9570077,30.5722293 L35.0262062,30.3139152 C28.7891513,28.5370094 25.0628175,26.4975655 22.6524795,22.875084 C22.2672721,22.2961584 22.4252279,21.5151825 23.0052837,21.1307256 C23.5853394,20.7462687 24.3678397,20.9039168 24.7530471,21.4828424 C26.6420102,24.3217531 29.7023473,26.0855261 34.8708057,27.6449202 L35.7275609,27.896141 C36.0194041,27.9793757 36.317555,28.0621509 36.6221613,28.1446039 L37.5554946,28.3911341 L38.9372159,28.7397057 L41.4169225,29.3498717 L42.3035022,29.573499 L43.1330362,29.7890476 L43.9090421,29.9980716 L44.6350373,30.202125 L45.3145396,30.4027618 L45.9510665,30.6015362 L46.5481356,30.800002 C46.6445544,30.8331403 46.7394756,30.8663305 46.8329727,30.8996049 L47.3774506,31.1005218 C47.5536372,31.1680039 47.7247132,31.2360821 47.8912647,31.3050153 L48.3779327,31.5146394 C48.8522,31.7273469 49.2910245,31.9500812 49.7102352,32.1898357 L50.1234943,32.4355225 C50.1914766,32.4775022 50.2590606,32.5200195 50.3263196,32.5631066 C53.1805889,34.3915936 54.4700753,36.9850032 53.9651439,40.5016981 C53.1744309,46.0087753 50.8789008,50.2502796 47.2869808,53.0037746 L47.2875372,58.5893792 C52.3147738,57.7844593 56.2506807,56.5624353 59.0891938,54.9437532 L59.2552923,54.8461656 L59.1377115,54.4487991 C56.9065349,46.8245543 55.937303,40.7672311 55.8851784,31.4805195 L55.8829485,30.6764951 C55.8829485,16.1767524 49.7053026,7.5166536 35.1259225,7.5166536 Z" id="Combined-Shape"></path>
                </g>
            </g>
        </g>
    </g>
</svg>