<?xml version="1.0" encoding="UTF-8"?>
<svg width="36px" height="36px" viewBox="0 0 36 36" version="1.1" xmlns="http://www.w3.org/2000/svg" xmlns:xlink="http://www.w3.org/1999/xlink">
    <title>DF74A856-8474-44AA-A5D4-77E69D87382F</title>
    <g id="Style-guide" stroke="none" stroke-width="1" fill="none" fill-rule="evenodd">
        <g id="Icons-and-logos" transform="translate(-505.000000, -791.000000)" fill-rule="nonzero">
            <g id="Group-2" transform="translate(321.000000, 754.000000)">
                <g id="icons/coins/S/5" transform="translate(184.000000, 37.000000)">
                    <circle id="Oval" stroke="#FFFFFF" stroke-width="2" fill="#8796FA" stroke-linecap="round" stroke-linejoin="round" cx="18" cy="18" r="17"></circle>
                    <path d="M15.790077,10 C18.9878482,10 21.5801539,12.6664665 21.5801539,15.9557197 C21.5801539,17.235022 21.1880168,18.4201156 20.520636,19.3907629 L22.818,21.755 L24.6521449,19.8690695 C24.9130486,19.6007018 25.3360571,19.6007018 25.5969609,19.8690695 C25.8341461,20.1130401 25.8557084,20.4948143 25.6616478,20.7638401 L25.5969609,20.8409148 L23.762,22.726 L25.8043222,24.8268789 C26.0652259,25.0952466 26.0652259,25.5303566 25.8043222,25.7987242 C25.567137,26.0426949 25.1959809,26.064874 24.9344373,25.8652617 L24.8595062,25.7987242 L22.818,23.698 L20.8959611,25.676401 C20.6350574,25.9447686 20.2120488,25.9447686 19.9511451,25.676401 C19.7139599,25.4324303 19.6923976,25.0506562 19.8864582,24.7816304 L19.9511451,24.7045556 L21.873,22.727 L19.6272787,20.4158526 C18.6056792,21.3464714 17.2620207,21.9114394 15.790077,21.9114394 C12.5923058,21.9114394 10,19.2449728 10,15.9557197 C10,12.6664665 12.5923058,10 15.790077,10 Z M15.790077,11.3743969 C13.330253,11.3743969 11.3361716,13.425525 11.3361716,15.9557197 C11.3361716,18.4859144 13.330253,20.5370425 15.790077,20.5370425 C18.249901,20.5370425 20.2439823,18.4859144 20.2439823,15.9557197 C20.2439823,13.425525 18.249901,11.3743969 15.790077,11.3743969 Z" id="Combined-Shape" fill="#FFFFFF"></path>
                </g>
            </g>
        </g>
    </g>
</svg>