<?xml version="1.0" encoding="UTF-8"?>
<svg width="70px" height="70px" viewBox="0 0 70 70" version="1.1" xmlns="http://www.w3.org/2000/svg" xmlns:xlink="http://www.w3.org/1999/xlink">
    <title>BB22D070-3467-46BD-B9F0-78A667D076FC</title>
    <g id="1.-Vehicle-page" stroke="none" stroke-width="1" fill="none" fill-rule="evenodd">
        <g id="1.-Vehicle-page---op2" transform="translate(-1154.000000, -865.000000)">
            <g id="Group-23" transform="translate(110.000000, 710.000000)">
                <g id="Group-16" transform="translate(937.000000, 115.000000)">
                    <g id="Group-14" transform="translate(60.000000, 40.000000)">
                        <g id="icons/60/flag" transform="translate(47.000000, 0.000000)">
                            <polygon id="Path-Copy-23" fill="#67E6C3" transform="translate(36.670886, 25.960558) scale(1, -1) translate(-36.670886, -25.960558) " points="15.9560358 15.5075603 57.3857363 10.3566664 57.3857363 41.5644499 16.1208182 37.3865919"></polygon>
                            <path d="M16.6528634,5.07968807 C17.8553437,5.07996125 18.8296214,6.05423894 18.8296214,7.25653713 C18.8296214,7.95711767 18.4986642,8.58051919 17.9844618,8.97872304 L17.983,57.4106881 L20.1307849,57.4115245 C20.8524637,57.4115245 21.4375,57.9965608 21.4375,58.7182396 C21.4375,59.4399184 20.8524637,60.0249546 20.1307849,60.0249546 L14.3067151,60.0249546 C13.5850363,60.0249546 13,59.4399184 13,58.7182396 C13,57.9965608 13.5850363,57.4115245 14.3067151,57.4115245 L15.322,57.4106881 L15.3216046,8.97877846 C14.8073994,8.58060775 14.4762875,7.95722381 14.4762875,7.25653713 C14.4762875,6.05423894 15.4505652,5.07968807 16.6528634,5.07968807 Z" id="Combined-Shape" fill="#232873"></path>
                        </g>
                    </g>
                </g>
            </g>
        </g>
    </g>
</svg>