<?xml version="1.0" encoding="UTF-8"?>
<svg width="24px" height="24px" viewBox="0 0 24 24" version="1.1" xmlns="http://www.w3.org/2000/svg" xmlns:xlink="http://www.w3.org/1999/xlink">
    <title>FCE73BCC-F548-4B54-8EF5-1917FD5E9F71</title>
    <g id="Style-guide" stroke="none" stroke-width="1" fill="none" fill-rule="evenodd">
        <g id="Icons-and-logos" transform="translate(-104.000000, -404.000000)" fill="#fff" fill-rule="nonzero">
            <g id="Group-6" transform="translate(70.000000, 367.000000)">
                <g id="icons/24/menu" transform="translate(34.000000, 37.000000)">
                    <path d="M3.11111111,20 L20.8888889,20 C21.5,20 22,19.4375 22,18.75 L22,18.75 C22,18.0625 21.5,17.5 20.8888889,17.5 L3.11111111,17.5 C2.5,17.5 2,18.0625 2,18.75 L2,18.75 C2,19.4375 2.5,20 3.11111111,20 Z M3.11111111,13.75 L20.8888889,13.75 C21.5,13.75 22,13.1875 22,12.5 L22,12.5 C22,11.8125 21.5,11.25 20.8888889,11.25 L3.11111111,11.25 C2.5,11.25 2,11.8125 2,12.5 L2,12.5 C2,13.1875 2.5,13.75 3.11111111,13.75 Z M2,6.25 L2,6.25 C2,6.9375 2.5,7.5 3.11111111,7.5 L20.8888889,7.5 C21.5,7.5 22,6.9375 22,6.25 L22,6.25 C22,5.5625 21.5,5 20.8888889,5 L3.11111111,5 C2.5,5 2,5.5625 2,6.25 Z" id="Shape"></path>
                </g>
            </g>
        </g>
    </g>
</svg>