<?xml version="1.0" encoding="UTF-8"?>
<svg width="377px" height="648px" viewBox="0 0 377 648" version="1.1" xmlns="http://www.w3.org/2000/svg" xmlns:xlink="http://www.w3.org/1999/xlink">
    <title>smart - mobile hero</title>
    <defs>
        <linearGradient x1="22.0095256%" y1="30.3402274%" x2="85.4835445%" y2="98.2573757%" id="linearGradient-1">
            <stop stop-color="#ABC1FF" stop-opacity="0" offset="0%"></stop>
            <stop stop-color="#526FF9" offset="100%"></stop>
        </linearGradient>
        <polygon id="path-2" points="159.203399 187.900744 -1.27841386e-12 148.827608 -1.27841386e-12 37.3167913 159.203399 0"></polygon>
        <linearGradient x1="34.8743519%" y1="34.9254224%" x2="86.9474302%" y2="116.642691%" id="linearGradient-4">
            <stop stop-color="#ABC1FF" stop-opacity="0" offset="0%"></stop>
            <stop stop-color="#526FF9" offset="100%"></stop>
        </linearGradient>
    </defs>
    <g id="1.-Vehicle-page" stroke="none" stroke-width="1" fill="none" fill-rule="evenodd">
        <g id="smart---mobile-hero" transform="translate(0.717357, 0.932432)">
            <polygon id="Path-2-Copy-7" fill="url(#linearGradient-1)" opacity="0.257578" transform="translate(187.782643, 522.151273) rotate(-270.000000) translate(-187.782643, -522.151273) " points="62.8663486 646.670879 62.8663486 429.715616 228.673252 334.651273 312.698938 334.651273 312.698938 709.651273 129.444644 709.651273"></polygon>
            <polygon id="Path" fill="#8796FA" fill-rule="nonzero" transform="translate(341.285387, 409.300135) rotate(-180.000000) translate(-341.285387, -409.300135) " points="307.282643 331.433229 307.282643 325.067568 375.288132 359.098877 375.288132 463.096447 307.282643 493.532703 307.282643 487.053649 369.287452 459.202858 369.287452 362.804858"></polygon>
            <g id="Group-5" transform="translate(0.000000, 316.152208)">
                <mask id="mask-3" fill="white">
                    <use xlink:href="#path-2"></use>
                </mask>
                <use id="Path-3" fill="#14008E" transform="translate(79.601700, 93.950372) rotate(-180.000000) translate(-79.601700, -93.950372) " xlink:href="#path-2"></use>
            </g>
            <path d="M75.2826433,219.890578 C75.2826433,219.890578 75.2826433,154.760385 75.2826433,24.5 L252.699783,-75 L300.282643,-75 L300.282643,300 L157.8241,300 C102.796462,246.593719 75.2826433,219.890578 75.2826433,219.890578 Z" id="Path-2-Copy-8" fill="url(#linearGradient-4)" opacity="0.187578474" transform="translate(187.782643, 112.500000) rotate(-90.000000) translate(-187.782643, -112.500000) "></path>
        </g>
    </g>
</svg>