<?xml version="1.0" encoding="UTF-8"?>
<svg width="24px" height="24px" viewBox="0 0 24 24" version="1.1" xmlns="http://www.w3.org/2000/svg" xmlns:xlink="http://www.w3.org/1999/xlink">
    <title>36B0EE94-8D70-4E7F-80B6-9927A45B6C2A</title>
    <g id="Style-guide" stroke="none" stroke-width="1" fill="none" fill-rule="evenodd">
        <g id="Icons-and-logos" transform="translate(-206.000000, -404.000000)" fill="#232873" fill-rule="nonzero">
            <g id="Group-6" transform="translate(70.000000, 367.000000)">
                <g id="icons/24/plus" transform="translate(136.000000, 37.000000)">
                    <path d="M21,12.0078708 C21,11.3939447 20.5039196,10.8980812 19.8897249,10.8980812 L13.1142123,10.8902104 L13.1142123,4.10978962 C13.1142123,3.49586345 12.6181319,3 12.0039371,3 C11.3897424,3 10.893662,3.49586345 10.893662,4.10978962 L10.893662,10.8902104 L4.11027511,10.8902104 C3.49608037,10.8902104 3,11.3860738 3,12 C3,12.6139262 3.49608037,13.1097896 4.11027511,13.1097896 L10.893662,13.1097896 L10.893662,19.8902104 C10.893662,20.5041366 11.3897424,21 12.0039371,21 C12.6181319,21 13.1142123,20.5041366 13.1142123,19.8902104 L13.1142123,13.1097896 L19.8975992,13.1097896 C20.4960453,13.1097896 21,12.6060553 21,12.0078708 Z" id="Path"></path>
                </g>
            </g>
        </g>
    </g>
</svg>