<?xml version="1.0" encoding="UTF-8"?>
<svg width="36px" height="36px" viewBox="0 0 36 36" version="1.1" xmlns="http://www.w3.org/2000/svg" xmlns:xlink="http://www.w3.org/1999/xlink">
    <title>235ED3A2-A4D4-48FC-8B68-586CD7523EF4</title>
    <g id="Style-guide" stroke="none" stroke-width="1" fill="none" fill-rule="evenodd">
        <g id="Icons-and-logos" transform="translate(-321.000000, -791.000000)">
            <g id="Group-2" transform="translate(321.000000, 754.000000)">
                <g id="icons/coins/S/1" transform="translate(0.000000, 37.000000)">
                    <circle id="Oval" stroke="#FFFFFF" stroke-width="2" fill="#8796FA" fill-rule="nonzero" stroke-linecap="round" stroke-linejoin="round" cx="18" cy="18" r="17"></circle>
                    <path d="M23.1538462,20.1538462 C24.8107004,20.1538462 26.1538462,21.4969919 26.1538462,23.1538462 C26.1538462,24.8107004 24.8107004,26.1538462 23.1538462,26.1538462 C21.4969919,26.1538462 20.1538462,24.8107004 20.1538462,23.1538462 C20.1538462,21.4969919 21.4969919,20.1538462 23.1538462,20.1538462 Z M25.027997,11.1258492 C25.2713237,11.3691758 25.2956563,11.7485679 25.100995,12.0191077 L25.027997,12.1049201 L12.1049201,25.027997 C11.8345571,25.29836 11.3962121,25.29836 11.1258492,25.027997 C10.8825225,24.7846703 10.8581898,24.4052782 11.0528511,24.1347385 L11.1258492,24.0489261 L24.0489261,11.1258492 C24.319289,10.8554862 24.757634,10.8554862 25.027997,11.1258492 Z M23.1538462,21.5384615 C22.2616939,21.5384615 21.5384615,22.2616939 21.5384615,23.1538462 C21.5384615,24.0459984 22.2616939,24.7692308 23.1538462,24.7692308 C24.0459984,24.7692308 24.7692308,24.0459984 24.7692308,23.1538462 C24.7692308,22.2616939 24.0459984,21.5384615 23.1538462,21.5384615 Z M13,10 C14.6568542,10 16,11.3431458 16,13 C16,14.6568542 14.6568542,16 13,16 C11.3431458,16 10,14.6568542 10,13 C10,11.3431458 11.3431458,10 13,10 Z M13,11.3846154 C12.1078477,11.3846154 11.3846154,12.1078477 11.3846154,13 C11.3846154,13.8921523 12.1078477,14.6153846 13,14.6153846 C13.8921523,14.6153846 14.6153846,13.8921523 14.6153846,13 C14.6153846,12.1078477 13.8921523,11.3846154 13,11.3846154 Z" id="Combined-Shape" fill="#FFFFFF"></path>
                </g>
            </g>
        </g>
    </g>
</svg>