<?xml version="1.0" encoding="UTF-8"?>
<svg width="24px" height="24px" viewBox="0 0 24 24" version="1.1" xmlns="http://www.w3.org/2000/svg" xmlns:xlink="http://www.w3.org/1999/xlink">
    <title>C5154C73-FEFF-44A8-80A3-7BDD85CFF545</title>
    <g id="Style-guide" stroke="none" stroke-width="1" fill="none" fill-rule="evenodd">
        <g id="Icons-and-logos" transform="translate(-580.000000, -404.000000)" fill="#232873" fill-rule="nonzero">
            <g id="Group-6" transform="translate(70.000000, 367.000000)">
                <g id="icons/24/mail" transform="translate(510.000000, 37.000000)">
                    <path d="M19.3333333,4.66666667 L4.66666667,4.66666667 C3.65833333,4.66666667 2.8425,5.49166667 2.8425,6.5 L2.83333333,17.5 C2.83333333,18.5083333 3.65833333,19.3333333 4.66666667,19.3333333 L19.3333333,19.3333333 C20.3416667,19.3333333 21.1666667,18.5083333 21.1666667,17.5 L21.1666667,6.5 C21.1666667,5.49166667 20.3416667,4.66666667 19.3333333,4.66666667 Z M19.3333333,17.5 L4.66666667,17.5 L4.66666667,8.33333333 L12,12.9166667 L19.3333333,8.33333333 L19.3333333,17.5 Z M12,11.0833333 L4.66666667,6.5 L19.3333333,6.5 L12,11.0833333 Z" id="Shape"></path>
                </g>
            </g>
        </g>
    </g>
</svg>