<?xml version="1.0" encoding="UTF-8"?>
<svg width="70px" height="70px" viewBox="0 0 70 70" version="1.1" xmlns="http://www.w3.org/2000/svg" xmlns:xlink="http://www.w3.org/1999/xlink">
    <title>72438A32-3B5C-471C-84A3-C0C23D324B9B</title>
    <g id="4.-Gender" stroke="none" stroke-width="1" fill="none" fill-rule="evenodd">
        <g id="4.-Gender-v3" transform="translate(-1213.000000, -340.000000)" fill="#14008E" fill-rule="nonzero">
            <g id="Group" transform="translate(990.000000, 320.000000)">
                <g id="Group-11-Copy" transform="translate(175.000000, 0.000000)">
                    <g id="icons/60/phone-copy" transform="translate(48.000000, 20.000000)">
                        <path d="M36.5714706,5 C45.7504163,5 51.7611643,8.38905709 54.7039743,14.513199 C56.9845217,19.2591376 57.2769487,25.4028124 55.9884274,31.9654158 C57.4649432,33.0017875 58.2526354,34.7945203 57.9272904,36.8977773 L57.891421,37.1070451 C57.3089299,40.2045587 55.6068074,41.6764698 52.6416734,41.6738851 L52.487766,41.6711537 L52.4817749,41.7078382 C51.5117843,46.6177856 49.3798426,50.4227172 46.2056043,52.9668599 L46.2052078,63.7424965 C46.2052078,64.4369965 45.6570624,65 44.9808908,65 C44.3469799,65 43.8255921,64.5051727 43.7628948,63.8710689 L43.7565738,63.7424965 L43.7568878,54.5706213 C41.2347295,55.9013139 38.2324385,56.6172634 34.7890162,56.6676957 L34.3962784,56.6705593 C31.4559385,56.6705593 28.8642454,56.0595571 26.6164378,54.9169457 L26.6161357,63.7424965 C26.6161357,64.4369965 26.0679903,65 25.3918186,65 C24.7579078,65 24.2365199,64.5051727 24.1738226,63.8710689 L24.1675016,63.7424965 L24.1670118,53.3608198 C20.9549407,50.8644906 18.6402779,47.0538121 17.2027886,42.2661779 L17.0315454,41.6751777 L16.8164565,41.6763571 C14.5796042,41.6399652 12.9990345,40.5218093 12.3325781,38.6219712 L12.2623023,38.4076766 C11.6883366,36.5302413 12.0872115,34.1457967 13.1573563,32.4793942 C13.7442695,31.5654677 14.4849108,30.9970689 15.35061,30.75405 C15.3199496,30.6131646 15.2904115,30.4726171 15.2614308,30.332795 L15.0881586,29.4714408 L14.9292928,28.6288903 L14.7848292,27.8051902 C14.7619519,27.6694803 14.7396745,27.5345577 14.7179969,27.4004235 L14.5951289,26.6050862 L14.4866526,25.8287158 C14.4528921,25.5730919 14.4215294,25.320637 14.392564,25.0713588 L14.3128587,24.3330619 L14.2475327,23.6138717 C14.2281534,23.3773313 14.2111699,23.1439831 14.1965816,22.9138349 L14.1600015,22.232998 L14.1377879,21.5714076 C14.1152405,20.5934804 14.1411664,19.6806677 14.2155021,18.8336776 L14.2722302,18.2787768 C14.8686171,13.1908615 17.3386888,10.6574284 21.6671209,10.8490468 L21.8974709,10.8613111 L22.1111131,10.595405 C25.307197,6.73907497 30.7982907,5.07786103 36.186785,5.00268089 L36.5714706,5 Z M36.5714706,7.51500707 C31.3993741,7.51500707 26.009756,9.18432157 23.465463,12.9019079 C23.2056523,13.2815296 22.7634114,13.4833412 22.3149804,13.4269176 C18.4111569,12.9357207 16.3814281,15.3835823 16.5261332,21.3802673 L16.5464985,21.9621293 L16.58007,22.5655676 L16.6269053,23.1906993 C16.6358197,23.2967022 16.6452891,23.4036138 16.6553148,23.5114367 L16.7221539,24.1693279 C16.7344095,24.2808053 16.7472238,24.3931988 16.7605979,24.5065109 L16.8475705,25.1974249 C16.8788073,25.4314167 16.9122931,25.669102 16.9480376,25.9105005 L17.0620567,26.6458547 C17.0821925,26.7702768 17.1028953,26.8956321 17.1241664,27.0219229 L17.2586218,27.7909145 C17.2821707,27.9209575 17.3062904,28.0519409 17.3309819,28.1838672 L17.4860033,28.9867596 L17.6548073,29.8123989 L17.8374517,30.660902 L17.8799109,30.8467189 C18.4111862,31.0012178 18.9675103,31.2327667 19.5452929,31.5388426 L19.8210293,31.6895936 L22.6284553,29.7850229 C23.1549493,29.4276207 23.8516825,29.5425294 24.2453608,30.0305055 L24.3249093,30.1407459 C24.6728793,30.6815111 24.5610032,31.39713 24.0859052,31.8014794 L23.9785741,31.8831842 L20.5349042,34.2208654 C20.1343163,34.4927982 19.6159417,34.4991103 19.2091897,34.2370083 C17.0249233,32.8295151 15.8658359,32.8295151 15.2013889,33.8641752 C14.5225403,34.9212612 14.2539041,36.5271485 14.5984714,37.654224 C14.9560978,38.8240159 15.899233,39.3785053 17.76755,39.0953162 C18.387852,39.0012942 18.9770565,39.4038163 19.1324266,40.0277479 C21.3293316,48.8500243 26.3208513,54.1555522 34.3962784,54.1555522 C43.4368257,54.1555522 48.8565586,49.2570116 50.269583,40.1416208 C50.3730262,39.4743108 50.971424,39.0102605 51.6246156,39.0908092 C54.1802059,39.4059534 55.0785416,38.8033319 55.4872222,36.6300905 C55.8838479,34.5209536 54.3510978,33.0859565 51.7278356,33.6460175 C51.1528241,33.7687812 50.5739415,33.4548696 50.3483107,32.8979403 L50.1880818,32.5153667 L49.9972221,32.0830434 L49.7757912,31.6011332 L49.5238485,31.0697989 L49.2414534,30.4892031 L48.9286653,29.8595086 L48.4026263,28.8232626 L48.0998139,28.2379979 L48.0712568,28.2478464 C38.4707101,30.9865349 30.0338184,29.4000145 22.8890129,23.4836534 L22.5206069,23.1737733 C22.0007525,22.7296649 21.929847,21.9367954 22.362235,21.4028497 C22.794623,20.868904 23.5665681,20.7960765 24.0864225,21.2401849 C30.899866,27.0608671 38.9390158,28.4971997 48.3532807,25.5437943 C48.9109088,25.3688575 49.5112814,25.6220925 49.7882667,26.1490662 L50.5675324,27.6480665 L51.081116,28.6591725 L51.3898524,29.2796193 L51.8026018,30.1301927 L52.0442702,30.6440418 L52.2233136,31.0377038 L52.3479099,31.0280392 C52.8061385,30.999346 53.2463255,31.0163112 53.6646132,31.074871 C56.3348945,16.9856702 51.3875362,7.51500707 36.5714706,7.51500707 Z" id="Combined-Shape"></path>
                    </g>
                </g>
            </g>
        </g>
    </g>
</svg>