<?xml version="1.0" encoding="UTF-8"?>
<svg width="43px" height="54px" viewBox="0 0 43 54" version="1.1" xmlns="http://www.w3.org/2000/svg" xmlns:xlink="http://www.w3.org/1999/xlink">
    <title>icon/60/hand</title>
    <g id="1.-Vehicle-page" stroke="none" stroke-width="1" fill="none" fill-rule="evenodd">
        <g transform="translate(-230.000000, -863.000000)" id="Group-23">
            <g transform="translate(110.000000, 710.000000)">
                <g id="Group-20" transform="translate(0.000000, 115.000000)">
                    <g id="Group-2" transform="translate(26.000000, 30.000000)">
                        <g id="Group" transform="translate(80.000000, 0.000000)">
                            <g id="Group-29-Copy-2" transform="translate(14.000000, 8.000000)">
                                <polygon id="Rectangle-Copy-4" fill="#67E6C3" transform="translate(20.604725, 10.322581) rotate(-360.000000) translate(-20.604725, -10.322581) " points="0.668277739 0 40.5411715 0 32.1969981 20.6451613 25.7298186 20.6451613 26.9641274 13.9680754 23.6371533 9.40439468 18.0975118 9.40439468 13.9910456 13.9680754 15.1686901 20.6451613 9.97195296 20.6451613"></polygon>
                                <path d="M20.6047246,7.93548387 C24.8988569,7.93548387 28.3799389,11.3150119 28.3799389,15.483871 C28.3799389,16.5419649 28.1556911,17.5492109 27.7508181,18.4632589 L33.6034597,18.4626279 C35.6207581,18.4626279 37.2697429,19.993562 37.3849544,21.9239709 L37.3913846,22.1400472 L37.391,24.3334839 L39.2120751,24.3343297 C41.2293735,24.3343297 42.8783582,25.8652638 42.9935698,27.7956727 L43,28.011749 L43,50.3225806 C43,52.2810282 41.4230617,53.8819069 39.4346444,53.9937573 L39.2120751,54 L3.78792491,54 C1.77062651,54 0.121641785,52.4690659 0.00643024675,50.538657 L0,50.3225806 L0,22.8062981 L0.00771679838,22.7019355 L0,22.495253 C0,20.3448941 1.73367628,18.5876443 3.91809348,18.4690115 L4.15380451,18.4626279 L13.4586312,18.4632589 C13.0537582,17.5492109 12.8295104,16.5419649 12.8295104,15.483871 C12.8295104,11.3150119 16.3105924,7.93548387 20.6047246,7.93548387 Z M2.2592062,26.0825806 L2.2592062,50.3225806 C2.2592062,51.0874653 2.85557862,51.7171818 3.62138225,51.7977445 L3.78792491,51.8064516 L39.2120751,51.8064516 C39.9999444,51.8064516 40.6485836,51.2277275 40.7315672,50.4842647 L40.740536,50.3225806 L40.74,44.0634839 L35.3604154,44.0638688 C32.9893745,44.0638688 31.0672661,42.1978343 31.0672661,39.8959641 C31.0672661,37.6734687 32.8591008,35.8572696 35.1167971,35.7346572 L35.3604154,35.7280593 L40.74,35.7274839 L40.740536,28.011749 C40.740536,27.2468644 40.1444214,26.6171479 39.3786177,26.5365852 L39.2120751,26.5278781 L4.15380451,26.5278781 C3.52095406,26.5278781 2.92115845,26.3904822 2.38434037,26.1447402 L2.2592062,26.0825806 Z M40.74,37.9214839 L35.3604154,37.9216077 C34.237242,37.9216077 33.3267301,38.8055572 33.3267301,39.8959641 C33.3267301,40.9257928 34.1388842,41.7714666 35.1753085,41.8622518 L35.3604154,41.8703204 L40.74,41.8694839 L40.74,37.9214839 Z M26.1026314,20.8213867 C24.6955944,22.1873761 22.7517908,23.0322581 20.6047246,23.0322581 C18.4576585,23.0322581 16.5138549,22.1873761 15.1068179,20.8213867 L14.9420681,20.6565316 L14.9420681,20.6565316 L4.15380451,20.6561762 C3.10758913,20.6561762 2.25946398,21.4795589 2.25946398,22.495253 C2.25946398,23.4512003 3.01074439,24.2367957 3.97136688,24.3259109 L4.15380451,24.3343297 L35.131,24.3334839 L35.1319207,22.1400472 C35.1319207,21.3751625 34.535806,20.7454461 33.7700024,20.6648834 L33.6034597,20.6561762 L26.2673812,20.6565316 L26.2673812,20.6565316 Z M20.6047246,10.1290323 C17.5584599,10.1290323 15.0889743,12.5264752 15.0889743,15.483871 C15.0889743,18.4412667 17.5584599,20.8387097 20.6047246,20.8387097 C23.6509894,20.8387097 26.120475,18.4412667 26.120475,15.483871 C26.120475,12.5264752 23.6509894,10.1290323 20.6047246,10.1290323 Z" id="Combined-Shape" fill="#14008E" fill-rule="nonzero"></path>
                            </g>
                        </g>
                    </g>
                </g>
            </g>
        </g>
    </g>
</svg>