<?xml version="1.0" encoding="UTF-8"?>
<svg width="70px" height="70px" viewBox="0 0 70 70" version="1.1" xmlns="http://www.w3.org/2000/svg" xmlns:xlink="http://www.w3.org/1999/xlink">
    <title>510CD1C3-5142-424D-BDD7-EC7E8B913591</title>
    <g id="1.-Vehicle-page" stroke="none" stroke-width="1" fill="none" fill-rule="evenodd">
        <g id="1.-Vehicle-page---op2" transform="translate(-528.000000, -855.000000)">
            <g id="Group-23" transform="translate(110.000000, 710.000000)">
                <g id="Group-18" transform="translate(312.000000, 115.000000)">
                    <g id="Group-11" transform="translate(59.000000, 30.000000)">
                        <g id="icons/60/phone" transform="translate(47.000000, 0.000000)">
                            <path d="M38.8134492,12 C41.2169066,12 43.1652939,13.9483872 43.1652939,16.3518447 L43.1652939,56.539402 C43.1652939,58.9428594 41.2169066,60.8912467 38.8134492,60.8912467 L15.3518447,60.8912467 C12.9483872,60.8912467 11,58.9428594 11,56.539402 L11,16.3518447 C11,13.9483872 12.9483872,12 15.3518447,12 L38.8134492,12 Z M38.8134492,14.8948764 L15.3518447,14.8948764 C14.5945164,14.8948764 13.9721456,15.4726985 13.901546,16.2115289 L13.8948764,16.3518447 L13.8948764,56.539402 C13.8948764,57.2967303 14.4726985,57.9191011 15.2115289,57.9897006 L15.3518447,57.9963702 L38.8134492,57.9963702 C39.5707775,57.9963702 40.1931483,57.4185482 40.2637478,56.6797178 L40.2704174,56.539402 L40.2704174,16.3518447 C40.2704174,15.5945164 39.6925954,14.9721456 38.9537649,14.901546 L38.8134492,14.8948764 Z M32.229094,51.8849644 C32.93967,51.8849644 33.5157057,52.4610001 33.5157057,53.1715762 C33.5157057,53.8821522 32.93967,54.4581879 32.229094,54.4581879 L21.9361999,54.4581879 C21.2256239,54.4581879 20.6495882,53.8821522 20.6495882,53.1715762 C20.6495882,52.4610001 21.2256239,51.8849644 21.9361999,51.8849644 L32.229094,51.8849644 Z" id="Combined-Shape" fill="#14008E" fill-rule="nonzero"></path>
                            <polygon id="Rectangle" fill="#67E6C3" transform="translate(42.371213, 31.852017) rotate(-270.000000) translate(-42.371213, -31.852017) " points="23.0720369 15.4477174 61.6703895 15.4477174 49.0268196 48.2563172 35.7156067 48.2563172"></polygon>
                        </g>
                    </g>
                </g>
            </g>
        </g>
    </g>
</svg>