<?xml version="1.0" encoding="UTF-8"?>
<svg width="32px" height="32px" viewBox="0 0 32 32" version="1.1" xmlns="http://www.w3.org/2000/svg" xmlns:xlink="http://www.w3.org/1999/xlink">
    <title>A2D52293-CFEA-4E36-A655-9EF6734A8761</title>
    <g id="1.-Vehicle-page" stroke="none" stroke-width="1" fill="none" fill-rule="evenodd">
        <g id="1.2-Contact-popup" transform="translate(-1191.000000, -443.000000)" fill="#232873" fill-rule="nonzero">
            <g id="Group-34" transform="translate(158.000000, 71.000000)">
                <g id="Group-5" transform="translate(523.000000, 115.000000)">
                    <g id="list/homepage/expanded-copy" transform="translate(0.000000, 204.000000)">
                        <g id="icons/32/phone" transform="translate(510.000000, 53.000000)">
                            <path d="M9.71428571,1 L23.2857143,1.01363636 C24.7785714,1.01363636 26,2.22727273 26,3.72727273 L26,3.72727273 L26,28.2727273 C26,29.7727273 24.7785714,31 23.2857143,31 L23.2857143,31 L9.71428571,31 C8.22142857,31 7,29.7727273 7,28.2727273 L7,28.2727273 L7,3.72727273 C7,2.22727273 8.22142857,1 9.71428571,1 L9.71428571,1 Z M20.494006,28.2727273 L12.8191808,28.2727273 C12.5169691,28.2727273 12.271978,28.5177183 12.271978,28.8199301 L12.271978,28.8199301 C12.271978,29.1291348 12.5169691,29.3741259 12.8191808,29.3741259 L12.8191808,29.3741259 L20.494006,29.3741259 C20.7962178,29.3741259 21.0412088,29.1291348 21.0412088,28.8269231 L21.0412088,28.8269231 C21.0412088,28.5177183 20.7962178,28.2727273 20.494006,28.2727273 L20.494006,28.2727273 Z M24.2823129,3.08216783 L8.71768707,3.08216783 L8.71768707,27.0821678 L24.2823129,27.0821678 L24.2823129,3.08216783 Z" id="Combined-Shape"></path>
                        </g>
                    </g>
                </g>
            </g>
        </g>
    </g>
</svg>