<?xml version="1.0" encoding="UTF-8"?>
<svg width="177px" height="73px" viewBox="0 0 177 73" version="1.1" xmlns="http://www.w3.org/2000/svg" xmlns:xlink="http://www.w3.org/1999/xlink">
    <title>Mobile - car for hero</title>
    <defs>
        <polygon id="path-1" points="0 0 15.3510771 0 15.3510771 66.7317042 0 66.7317042"></polygon>
    </defs>
    <g id="1.-Vehicle-page" stroke="none" stroke-width="1" fill="none" fill-rule="evenodd">
        <g id="Mobile---car-for-hero" transform="translate(88.885296, 36.199597) scale(-1, 1) rotate(-180.000000) translate(-88.885296, -36.199597) translate(0.770592, 0.072581)">
            <path d="M158.276549,69.6260229 L155.785465,71.1518364 C154.609258,71.8724592 153.25556,72.2540123 151.875048,72.2540123 L132.471641,72.2540123 C130.801579,72.2540123 129.146526,71.9418688 127.591924,71.3339368 L123.224872,69.6260229 L158.276549,69.6260229 Z" id="Fill-3" fill="#8CD2FA"></path>
            <path d="M42.8656475,71.4867375 C42.0916483,71.9875634 41.1887827,72.2540323 40.2663069,72.2540323 L23.3323734,72.2540323 C22.1193478,72.2540323 20.9205295,71.9963393 19.8155597,71.4981063 L18.0510496,70.7024893 L18.0510496,69.6260428 L45.7407303,69.6260428 L42.8656475,71.4867375 Z" id="Fill-5" fill="#8CD2FA"></path>
            <path d="M158.276549,2.62802932 L155.785465,1.10221578 C154.609258,0.381593 153.25556,3.98905499e-05 151.875048,3.98905499e-05 L132.471641,3.98905499e-05 C130.801579,3.98905499e-05 129.146526,0.312183443 127.591924,0.920115424 L123.224872,2.62802932 L158.276549,2.62802932 Z" id="Fill-7" fill="#8CD2FA"></path>
            <path d="M42.8656475,0.76749418 C42.0916483,0.266668326 41.1887827,0 40.2663069,0 L23.3323734,0 C22.1193478,0 20.9205295,0.257692952 19.8155597,0.755925921 L18.0510496,1.55154294 L18.0510496,2.62798943 L45.7407303,2.62798943 L42.8656475,0.76749418 Z" id="Fill-9" fill="#8CD2FA"></path>
            <g id="Group-13" transform="translate(0.000000, 2.760865)">
                <mask id="mask-2" fill="white">
                    <use xlink:href="#path-1"></use>
                </mask>
                <g id="Clip-12"></g>
                <path d="M15.3510771,0 L9.5468837,0.665374372 C7.28171546,0.925061852 5.36972938,2.47560753 4.6523594,4.63308792 C-1.55083983,23.2875047 -1.55083983,43.4441995 4.6523594,62.0990152 C5.37012958,64.2572934 7.28051484,65.8066424 9.5468837,66.0663298 L15.3510771,66.7317042 L15.3510771,0 Z" id="Fill-11" fill="#8CD2FA" mask="url(#mask-2)"></path>
            </g>
            <path d="M12.1302761,66.4324453 L12.1302761,67.849956 C13.5634152,69.652211 15.7441399,70.7025292 18.0511297,70.7025292 L156.980781,70.7025292 C159.255354,70.7025292 161.51652,70.357077 163.68664,69.677741 L163.699646,69.6737519 C168.801077,68.0767338 172.652063,63.871472 173.791851,58.6641596 C177.041927,43.8149024 177.041927,28.4388905 173.791851,13.5894339 C172.653464,8.38850396 168.794674,4.17466572 163.699646,2.57984153 L163.68664,2.57585248 C161.51652,1.89651641 159.255354,1.5508648 156.980781,1.5508648 L18.0511297,1.5508648 C15.7441399,1.5508648 13.5634152,2.60158188 12.1302761,4.40363747 L12.1302761,5.82114817 L12.1302761,66.4324453 Z" id="Fill-14" fill="#8CD2FA"></path>
            <path d="M126.333715,8.62601229 L172.147343,19.6415882 C174.581799,30.4978013 174.581799,41.7557123 172.147343,52.611726 L126.333715,63.6275014 L126.333715,8.62601229 Z" id="Fill-16" fill="#8CD2FA"></path>
            <path d="M124.03525,64.9833014 C125.706912,65.3235678 127.359964,64.3566209 127.882434,62.7376629 C133.465513,45.434738 133.465513,26.8186161 127.882434,9.51569122 C127.360965,7.90012395 125.70371,6.93058414 124.03525,7.27025217 L99.3261063,12.2986554 C98.1591045,12.5360042 97.4063162,13.6700925 97.6426381,14.8335004 C100.499111,28.8861433 100.499111,43.3674102 97.6426381,57.4202526 C97.4065163,58.5832616 98.1595047,59.7177488 99.3263064,59.9550976 L124.03525,64.9833014 Z" id="Fill-18" fill="#14008E"></path>
            <path d="M171.933013,52.6140995 C171.933013,52.6140995 168.312145,67.844112 159.133811,69.6653151 C158.789434,69.7337274 158.436652,69.5953072 158.231346,69.3112864 C158.02604,69.0272657 158.00623,68.6499011 158.18032,68.3459351 C163.735985,58.6375726 168.176475,55.128002 171.933013,52.6140995" id="Fill-22" fill="#FFFFFF"></path>
            <path d="M171.933013,19.6397333 C171.933013,19.6397333 168.312145,4.40952133 159.133811,2.58831828 C158.789434,2.52010543 158.436652,2.65832619 158.231346,2.94234691 C158.02604,3.22656707 158.00623,3.60373222 158.18032,3.90769821 C163.735985,13.6160608 168.176475,17.1258308 171.933013,19.6397333" id="Fill-24" fill="#FFFFFF"></path>
            <path d="M13.7570951,60.4829493 C11.8623179,60.6666453 10.127223,59.4424043 9.6647845,57.6018543 C6.12355816,43.5031378 6.12355816,28.7502163 9.6647845,14.6516992 C10.1262225,12.8149389 11.86652,11.5873072 13.7570951,11.7706043 L32.8273303,13.6183346 C33.5525043,13.6887414 34.2182477,14.0481552 34.6732824,14.6151994 C35.1285171,15.1822436 35.333823,15.9086505 35.2439767,16.6290738 C33.6267426,29.5775463 33.6267426,42.6760073 35.2439767,55.6244798 C35.333823,56.3447036 35.1277167,57.0707116 34.672682,57.6373569 C34.2178475,58.2042016 33.5523042,58.5650116 32.8273303,58.6350196 L13.7570951,60.4829493 Z" id="Fill-26" fill="#14008E"></path>
            <path d="M85.0499035,11.0911286 L103.254492,8.61851287 C107.944711,7.98146079 112.545484,6.807083 116.965764,5.11871547 L118.62522,4.48465518 C118.770294,4.42940677 118.855138,4.27881994 118.826724,4.12643804 C118.798509,3.97445505 118.66524,3.86415768 118.51016,3.86415768 L25.5172002,5.3275425 C25.1836282,5.33911076 24.9068854,5.58802779 24.8610618,5.91752373 C24.8150381,6.24682022 25.0133403,6.56155666 25.3309041,6.66347702 L32.2986977,8.90053905 C38.0612697,10.7504633 44.0783729,11.6926781 50.1324953,11.6926781 L57.4434658,11.6926781 L59.7954788,11.6926781 L76.1547159,11.6926781 C79.1298503,11.6926781 82.1019832,11.4916297 85.0499035,11.0911286" id="Fill-28" fill="#14008E"></path>
            <path d="M85.0499035,61.2092764 L103.254492,63.6818922 C107.944711,64.3189442 112.545484,65.493322 116.965764,67.181889 L118.62522,67.8157498 C118.770294,67.8711977 118.855138,68.0215851 118.826724,68.173967 C118.798509,68.3261494 118.66524,68.4364468 118.51016,68.4364468 L25.5172002,66.9728625 C25.1836282,66.9612943 24.9068854,66.7123772 24.8610618,66.3828813 C24.8150381,66.0535848 25.0133403,65.7390478 25.3309041,65.6371275 L32.2986977,63.399866 C38.0612697,61.5499417 44.0783729,60.6077269 50.1324953,60.6077269 L57.4434658,60.6077269 L59.7954788,60.6077269 L76.1547159,60.6077269 C79.1298503,60.6077269 82.1019832,60.8087753 85.0499035,61.2092764" id="Fill-30" fill="#14008E"></path>
        </g>
    </g>
</svg>