<svg xmlns="http://www.w3.org/2000/svg" xmlns:xlink="http://www.w3.org/1999/xlink" width="46" height="44" viewBox="0 0 46 44">
    <defs>
        <path id="ng9m7tkvga" d="M22.384 19.133l-1.387 1.418c-.867.886-2.336.884-3.571-.004-2.493-1.794-7.57-6.972-8.377-8.25-.745-1.182-.6-2.585.368-3.573l1.387-1.418c.392-.4 1.064-.251 1.475.17l1.86 1.9c.498.508.485 1.179.166 1.504l-.634.647c-.729.744-.044 1.393.72 2.173l1.74 1.779c.774.79 1.405 1.457 2.12.727l.633-.647c.361-.368 1.022-.292 1.475.17l1.86 1.9c.5.51.482 1.18.165 1.504z"/>
    </defs>
    <g fill="none" fill-rule="evenodd">
        <g stroke-linecap="round" stroke-linejoin="round" transform="translate(7.797 6.286)">
            <path fill="#35B022" stroke="#37B340" stroke-width="1.5" d="M11.066 28.036c1.316.349 2.704.536 4.138.536 8.397 0 15.203-6.396 15.203-14.286S23.6 0 15.204 0C6.807 0 0 6.396 0 14.286c0 3.986 1.737 7.59 4.54 10.183l-2.028 6.96 8.554-3.393z"/>
            <use fill="#D8D8D8" xlink:href="#ng9m7tkvga"/>
            <use fill="#FFF" stroke="#FFF" stroke-width="1.5" xlink:href="#ng9m7tkvga"/>
        </g>
    </g>
</svg>
