<?xml version="1.0" encoding="UTF-8"?>
<svg width="32px" height="32px" viewBox="0 0 32 32" version="1.1" xmlns="http://www.w3.org/2000/svg" xmlns:xlink="http://www.w3.org/1999/xlink">
    <title>C74D1B4E-48D2-490F-AC19-1671C45BF84D</title>
    <defs>
        <filter id="filter-1">
            <feColorMatrix in="SourceGraphic" type="matrix" values="0 0 0 0 0.137000 0 0 0 0 0.157000 0 0 0 0 0.451000 0 0 0 1.000000 0"></feColorMatrix>
        </filter>
    </defs>
    <g id="Style-guide" stroke="none" stroke-width="1" fill="none" fill-rule="evenodd">
        <g id="Icons-and-logos" transform="translate(-112.000000, -515.000000)">
            <g id="Group-5" transform="translate(70.000000, 478.000000)">
                <g id="Group" transform="translate(42.000000, 37.000000)">
                    <g transform="translate(1.000000, 1.000000)">
                        <path d="M0.12625,14.8665226 C0.1324375,1.89033125 15.722215,-4.84396059 25.3597962,4.03777942 L25.65,4.31171264 L25.63125,4.36046177 C28.45,7.1679112 30,10.9040939 30,14.8740224 C29.99505,26.0719582 18.042681,33.1302712 8.21586712,28.0914401 L7.91875,27.9350372 L0,30 L2.12,22.2976387 C0.8125,20.0414294 0.12625,17.4864754 0.12625,14.8665226 Z M2.00745347,15.2698205 C2.0694322,17.2828773 2.59499187,19.2413684 3.54634727,21.0070212 L3.74228443,21.3575396 L4.13632586,22.0374937 L2.6690625,27.3660696 L8.16015856,25.9344161 L8.80986426,26.2853577 C17.4836559,30.9705473 28.1206484,24.7178726 28.125,14.8740224 C28.125,11.5201923 26.863682,8.36784476 24.5589921,5.94561786 L24.3080785,5.68891146 L23.615625,4.99959746 L23.5771941,4.96718927 C15.2191181,-2.02375776 2.27669805,3.59814035 2.00557801,14.5242571 L2.00124979,14.8674166 L2.00745347,15.2698205 Z" id="Combined-Shape" fill="#232873"></path>
                        <path d="M21.9132186,18.380457 L21.9019686,18.4742053 C19.1532186,17.10423 18.8657186,16.9217333 18.5107186,17.4542237 C18.2644686,17.822967 17.5469686,18.659202 17.3307186,18.9066975 C17.1119686,19.1504431 16.8944686,19.1691928 16.5232186,19.0004458 C16.1482186,18.8129492 14.9444686,18.4192063 13.5194686,17.1442293 C12.4094686,16.1504972 11.6644686,14.9317691 11.4444686,14.5567759 C11.0782186,13.9242872 11.8444686,13.8342889 12.5419686,12.5143126 C12.6669686,12.2518174 12.6032186,12.0455711 12.5107186,11.8593244 C12.4169686,11.6718278 11.6707186,9.83436091 11.3582186,9.1018741 C11.0582186,8.37188725 10.7494686,8.46438558 10.5182186,8.46438558 C9.79821863,8.40188671 9.27196863,8.41188653 8.80821863,8.89437784 C6.79071863,11.1118379 7.29946863,13.3992967 9.02571863,15.8317529 C12.4182186,20.2716729 14.2257186,21.0891582 17.5307186,22.2241378 C18.4232186,22.5078827 19.2369686,22.4678834 19.8807186,22.375385 C20.5982186,22.2616371 22.0894686,21.4741513 22.4007186,20.5929171 C22.7194686,19.711683 22.7194686,18.9804462 22.6257186,18.8116992 C22.5332186,18.6429523 22.2882186,18.549204 21.9132186,18.380457 L21.9132186,18.380457 Z" id="Path" fill="#232873"></path>
                    </g>
                </g>
            </g>
        </g>
    </g>
</svg>