<?xml version="1.0" encoding="UTF-8"?>
<svg width="24px" height="24px" viewBox="0 0 24 24" version="1.1" xmlns="http://www.w3.org/2000/svg" xmlns:xlink="http://www.w3.org/1999/xlink">
    <title>4421DB25-E102-4309-ACC8-73D3D8FCBA3A</title>
    <g id="Style-guide" stroke="none" stroke-width="1" fill="none" fill-rule="evenodd">
        <g id="Icons-and-logos" transform="translate(-682.000000, -404.000000)" fill="#232873" fill-rule="nonzero">
            <g id="Group-6" transform="translate(70.000000, 367.000000)">
                <g id="icons/24/youtube" transform="translate(612.000000, 37.000000)">
                    <path d="M12.0098928,4.00000495 C12.0165678,4.0000099 12.0265171,4.0000198 12.0396139,4.0000396 L12.4563071,4.00169803 C13.2430403,4.00630695 14.9374897,4.02342583 16.6711212,4.08701021 L17.2188732,4.10867365 C18.9511298,4.18241649 20.6311438,4.3061991 21.3903809,4.51397706 C22.4183349,4.79083253 23.2289429,5.60125731 23.5056152,6.62939453 C23.9574529,8.27969638 23.9970272,11.5027215 23.9999823,12.2598141 L23.9997295,12.5138691 C23.9960157,13.1131743 23.9551643,16.4869607 23.5057983,18.1943359 C23.2289429,19.2222901 22.4185181,20.0328979 21.3903809,20.3095703 C19.7120673,20.751361 13.5345913,20.79836 12.2392287,20.8033599 L11.7613657,20.8033363 C10.4691338,20.7981382 4.3054407,20.7492767 2.60961914,20.289978 C1.58148192,20.0131225 0.771057141,19.2025146 0.494201672,18.1745605 C0.0449274247,16.4851629 0.00408431134,13.0966676 0.000371301031,12.4945395 L0.000371301031,12.3098572 C0.00408431134,11.7105259 0.0449274247,8.33660334 0.494201672,6.62939453 C0.770874,5.60144041 1.60125731,4.77105714 2.60943605,4.49438477 C4.2078299,4.07363177 9.88709677,4.01096643 11.5433377,4.0016333 L11.9600208,4.00003809 C11.9862139,4 11.9998169,4 11.9998169,4 Z M9.60791016,8.80395508 L9.60791016,16 L15.8549194,12.4019776 L9.60791016,8.80395508 Z" id="Combined-Shape"></path>
                </g>
            </g>
        </g>
    </g>
</svg>